<svg width="64" height="64" viewBox="0 0 570 784" fill="none" xmlns="http://www.w3.org/2000/svg" preserveAspectRatio="xMidYMid meet">
  <path fill-rule="evenodd" clip-rule="evenodd" d="M286.651 783.109C448.99 755.099 569.474 612.786 569.474 447.521V105.859C536.51 100.688 503.438 94.9479 470.813 87.4115L451.464 132.073L512.776 140.063L394.536 394.083L367.651 388.01L417.823 178.984L377.552 170.099L409.5 70.3125C361.464 54 324.115 32.625 285.073 0L284.74 0.109375L284.401 0C268.875 12.9375 252.677 24.974 235.349 35.6615C204.635 54.4479 172.24 67.3854 137.698 77.3958C116.552 83.474 95.0625 88.4219 73.4635 92.8125C49.1615 97.7604 24.6354 101.922 0 105.859V447.521C0 612.786 120.49 755.099 282.823 783.109C283.052 783.109 283.276 783.109 283.385 783L284.74 782.771L286.089 783C286.313 783.109 286.427 783.109 286.651 783.109Z" fill="white"/>
</svg>
