<svg width="64" height="65" viewBox="0 0 64 65" fill="none" xmlns="http://www.w3.org/2000/svg">
<path d="M48.9884 0C47.7899 0 46.8181 0.971015 46.8181 2.16884V6.52681H17.2949V2.16884C17.2949 0.971015 16.3232 0 15.1239 0C13.9254 0 12.9536 0.971015 12.9536 2.16884V6.52681H6.11232C2.74203 6.52681 0 9.26667 0 12.6341V58.2543C0 61.6217 2.74203 64.3616 6.11232 64.3616H57.8884C61.2587 64.3616 64 61.6217 64 58.2543V12.6341C64 9.26667 61.2587 6.52681 57.8884 6.52681H51.1587V2.16884C51.1587 0.971015 50.187 0 48.9884 0ZM12.9536 9.63841V12.3312C12.9536 13.529 13.9254 14.5 15.1239 14.5C16.3232 14.5 17.2949 13.529 17.2949 12.3312V9.63841C18.0812 10.2717 18.5848 11.2428 18.5848 12.3312C18.5848 14.2406 17.0355 15.7884 15.1239 15.7884C13.213 15.7884 11.6638 14.2406 11.6638 12.3312C11.6638 11.2428 12.1667 10.2717 12.9536 9.63841ZM60.9891 58.2543C60.9891 59.9623 59.5978 61.3522 57.8884 61.3522H6.11232C4.4029 61.3522 3.01159 59.9623 3.01159 58.2543V26.5515H60.9891V58.2543ZM52.4486 12.3312C52.4486 14.2406 50.8993 15.7884 48.9884 15.7884C47.0768 15.7884 45.5275 14.2406 45.5275 12.3312C45.5275 11.2428 46.0312 10.2717 46.8174 9.63841V12.3304C46.8174 13.5283 47.7891 14.4993 48.9884 14.4993C50.187 14.4993 51.1587 13.5283 51.1587 12.3304V9.63768C51.9457 10.2717 52.4486 11.2428 52.4486 12.3312Z" fill="white"/>
</svg>
