<svg xmlns="http://www.w3.org/2000/svg"  viewBox="0 0 50 50" width="50px" height="50px">
  <path d="M 25 2 C 24.7725 2 24.544875 2.0759688 24.359375 2.2304688 L 18.638672 7 L 7 7 C 6.729 7 6.47025 7.1096875 6.28125 7.3046875 C 6.09325 7.4996875 5.9919531 7.7632031 6.0019531 8.0332031 L 7.0019531 38.033203 C 7.0139531 38.408203 7.2342187 38.744297 7.5742188 38.904297 L 24.574219 46.904297 C 24.709219 46.968297 24.854 47 25 47 C 25.146 47 25.290781 46.968297 25.425781 46.904297 L 42.425781 38.904297 C 42.765781 38.744297 42.987047 38.408203 42.998047 38.033203 L 43.998047 8.0332031 C 44.008047 7.7632031 43.90675 7.4996875 43.71875 7.3046875 C 43.52975 7.1096875 43.271 7 43 7 L 31.361328 7 L 25.640625 2.2304688 C 25.455125 2.0759687 25.2275 2 25 2 z M 25 7.6582031 C 25.215375 7.6582031 25.429375 7.7267344 25.609375 7.8652344 L 29.683594 11 L 39 11 C 39.272 11 39.533656 11.111594 39.722656 11.308594 C 39.910656 11.505594 40.010047 11.771969 39.998047 12.042969 L 38.998047 35.597656 C 38.982047 35.974656 38.757063 36.308844 38.414062 36.464844 L 25.414062 42.376953 C 25.282062 42.436953 25.142 42.466797 25 42.466797 C 24.858 42.466797 24.717938 42.436953 24.585938 42.376953 L 11.585938 36.464844 C 11.242938 36.308844 11.017953 35.974656 11.001953 35.597656 L 10.001953 12.042969 C 9.9899531 11.771969 10.089344 11.505594 10.277344 11.308594 C 10.466344 11.111594 10.728 11 11 11 L 20.316406 11 L 24.388672 7.8652344 C 24.568172 7.7267344 24.784625 7.6582031 25 7.6582031 z M 25 9.9199219 L 21.267578 12.792969 C 21.092578 12.927969 20.87725 13 20.65625 13 L 12.042969 13 L 12.972656 34.898438 L 25 40.367188 L 37.027344 34.898438 L 37.957031 13 L 29.34375 13 C 29.12275 13 28.907422 12.927969 28.732422 12.792969 L 25 9.9199219 z M 23 17 L 27 17 C 27.459 17 27.858703 17.312812 27.970703 17.757812 L 28.78125 21 L 30.279297 21 L 31.052734 18.683594 C 31.188734 18.274594 31.569 18 32 18 L 34 18 C 34.281 18 34.549281 18.117219 34.738281 18.324219 C 34.927281 18.532219 35.021094 18.810797 34.996094 19.091797 L 33.996094 30.091797 C 33.949094 30.605797 33.518 31 33 31 L 17 31 C 16.482 31 16.050906 30.605797 16.003906 30.091797 L 15.003906 19.091797 C 14.978906 18.811797 15.071719 18.532219 15.261719 18.324219 C 15.450719 18.117219 15.719 18 16 18 L 18 18 C 18.431 18 18.812266 18.274594 18.947266 18.683594 L 19.720703 21 L 21.21875 21 L 22.03125 17.757812 C 22.14225 17.312812 22.541 17 23 17 z M 23.78125 19 L 22.96875 22.242188 C 22.85775 22.688187 22.459 23 22 23 L 19 23 C 18.569 23 18.187734 22.725406 18.052734 22.316406 L 17.279297 20 L 17.09375 20 L 17.548828 25 L 32.449219 25 L 32.904297 20 L 32.720703 20 L 31.947266 22.316406 C 31.812266 22.725406 31.431 23 31 23 L 28 23 C 27.541 23 27.141297 22.688188 27.029297 22.242188 L 26.21875 19 L 23.78125 19 z M 17.730469 27 L 17.912109 29 L 32.087891 29 L 32.269531 27 L 17.730469 27 z"/>
</svg>
