<svg xmlns="http://www.w3.org/2000/svg" viewBox="0 0 640 640">
  <defs>
    <mask id="cutout">
      <!-- fondo blanco = mostrar, negro = recortar -->
      <rect width="100%" height="100%" fill="white"/>
      <!--!Font Awesome Free v7.2.0 by @fontawesome - https://fontawesome.com License - https://fontawesome.com/license/free Copyright 2026 Fonticons, Inc.-->
      <path d="M482.96 171.16C482.8 170.92 482.64 170.68 482.32 170.6C451.84 156.6 419.6 146.6 386.56 140.92C386.24 140.84 385.92 140.92 385.68 141C385.44 141.08 385.2 141.32 385.04 141.64C380.64 149.56 376.64 157.8 373.12 166.12C337.44 160.68 301.2 160.68 265.6 166.12C262 157.72 258 149.56 253.52 141.64C253.12 141.16 252.8 140.92 252.64 140.84C252.48 140.76 252.32 140.76 252 140.84C218.96 146.52 186.72 156.52 156.24 170.52C94.64 262.12 77.92 351 86.08 438.68C86.08 438.92 86.16 439.08 86.24 439.32C86.32 439.56 86.48 439.64 86.64 439.8C122.16 466.12 161.84 486.2 204.08 499.16C204.4 499.24 204.72 499.24 204.96 499.16C205.2 499.08 205.52 498.84 205.68 498.6C214.72 486.28 222.8 473.16 229.68 459.56C229.76 459.4 229.84 459.16 229.84 458.92C229.84 458.68 229.84 458.52 229.76 458.28C229.68 458.04 229.6 457.88 229.44 457.8C229.28 457.72 229.12 457.56 228.88 457.48C216.24 452.6 203.92 446.76 192.16 439.96C191.92 439.8 191.76 439.64 191.6 439.48C191.44 439.32 191.36 439 191.36 438.76C191.36 438.52 191.36 438.28 191.52 438.04C191.68 437.8 191.76 437.64 192 437.48C194.48 435.64 196.96 433.72 199.28 431.8C199.52 431.64 199.76 431.48 200 431.48C200.24 431.48 200.56 431.48 200.8 431.56C277.76 466.68 361.12 466.68 437.2 431.56C437.44 431.48 437.76 431.4 438 431.4C438.24 431.4 438.56 431.56 438.72 431.64C441.04 433.64 443.52 435.64 445.92 437.48C446.08 437.64 446.24 437.8 446.4 438.04C446.56 438.28 446.64 438.52 446.64 438.76C446.64 439 446.56 439.24 446.4 439.48C446.24 439.72 446.08 439.88 445.92 439.96C434.16 446.84 421.92 452.68 409.2 457.4C409.04 457.48 408.8 457.56 408.48 457.72C408.24 457.88 408.24 458.04 408.24 458.28C408.24 458.52 408.24 458.68 408.4 458.92C408.56 459.32 408.4 459.56 408.4 459.56C415.44 473.16 423.44 486.2 432.4 498.6C432.56 498.84 432.88 499.08 433.12 499.16C433.36 499.24 433.76 499.24 434 499.16C476.32 486.2 516.08 466.12 551.68 439.8C551.84 439.64 552 439.48 552.08 439.32C552.16 439.16 552.24 438.92 552.24 438.68C562.08 337.24 535.84 249.16 482.72 171.08zM241.36 385.32C218.16 385.32 199.12 364.12 199.12 338.2C199.12 312.68 217.84 291.32 241.36 291.32C265.12 291.32 284 312.04 283.6 338.2C283.6 364.12 264.88 385.32 241.36 385.32zM397.68 385.32C374.48 385.32 355.44 364.12 355.44 338.2C355.44 312.68 374.16 291.32 397.68 291.32C421.44 291.32 440.32 312.04 439.92 338.2C439.92 364.12 420.96 385.32 397.68 385.32z"/>
    </mask>
  </defs>
  <!-- Círculo negro; la máscara recorta la forma del logo dejándola transparente -->
  <circle cx="320" cy="320" r="320" fill="#000" mask="url(#cutout)"/>
</svg>
