<svg width="64" height="70" viewBox="0 0 64 70" fill="none" xmlns="http://www.w3.org/2000/svg">
<path d="M10.7642 35.7372C10.3784 35.3675 10.3654 34.7508 10.7395 34.3644L28.2765 16.1996C28.4741 15.994 28.7407 15.8952 29.0037 15.9039L44.4253 15.5996L50.5056 8.55573L45.8142 4.79955C45.1568 4.27363 45.4358 3.22548 46.2537 3.08536V3.08165L61.6957 0.402022C62.2753 0.303256 62.8216 0.731034 62.8333 1.36807L63.6019 16.9767C63.6389 17.7903 62.6815 18.3452 61.971 17.7409L57.3617 14.0502L48.7963 23.9792C48.5994 24.2057 48.3241 24.3162 48.0445 24.3125L32.3562 24.6205L17.058 40.4638C16.684 40.8496 16.0679 40.8619 15.6815 40.4921L10.7642 35.7372ZM47.1654 28.8039H41.3358C40.2352 28.8039 39.3358 29.7039 39.3358 30.8094V58.9366C39.3358 60.0422 40.2352 60.9422 41.3358 60.9422H47.1654C48.2704 60.9422 49.1661 60.0422 49.1661 58.9366V30.8094C49.1661 29.7039 48.2704 28.8039 47.1654 28.8039ZM61.6012 22.1872H55.7759C54.6704 22.1872 53.771 23.0872 53.771 24.1928V58.9366C53.771 60.0422 54.6704 60.9422 55.7759 60.9422H61.6012C62.7062 60.9422 63.6012 60.0422 63.6012 58.9366V24.1928C63.6012 23.0872 62.7062 22.1872 61.6012 22.1872ZM63.5932 64.7971L61.1284 62.331C60.5945 61.7971 59.7315 61.7971 59.1975 62.331C58.6679 62.8613 58.6679 63.7243 59.1975 64.2588L59.3414 64.3983H6.52038C5.78951 64.3983 5.18519 63.794 5.18519 63.0582V4.65511L5.32531 4.79523C5.85494 5.32548 6.71791 5.32548 7.25186 4.79523C7.78581 4.26066 7.78581 3.3977 7.25186 2.86375L4.78704 0.397701C4.25309 -0.132547 3.39013 -0.132547 2.85618 0.397701L0.391363 2.86375C-0.138267 3.3977 -0.138267 4.26066 0.391363 4.79523C0.925314 5.32548 1.78828 5.32548 2.32223 4.79523L2.45803 4.65511V63.0588C2.45803 65.2983 4.28149 67.123 6.52038 67.123H6.9105V67.1193H59.3414L59.1975 67.2631C58.6679 67.7971 58.6679 68.6601 59.1975 69.1903C59.7321 69.7249 60.5945 69.7249 61.1284 69.1903L63.5932 66.7243C64.1235 66.1903 64.1235 65.3273 63.5932 64.7971ZM12.4648 60.9422H18.2938C19.3951 60.9422 20.2945 60.0422 20.2945 58.9366V46.4965C20.2945 45.3909 19.3951 44.4909 18.2938 44.4909H12.4648C11.3642 44.4909 10.4642 45.3909 10.4642 46.4965V58.9366C10.4642 60.0422 11.3642 60.9422 12.4648 60.9422ZM26.9006 37.0564C25.7994 37.0564 24.9 37.9563 24.9 39.0619V58.9366C24.9 60.0422 25.7994 60.9422 26.9006 60.9422H32.7296C33.8309 60.9422 34.7303 60.0422 34.7303 58.9366V39.0619C34.7303 37.9563 33.8309 37.0564 32.7296 37.0564H26.9006Z" fill="white"/>
</svg>
