<svg width="64" height="62" viewBox="0 0 64 62" fill="none" xmlns="http://www.w3.org/2000/svg">
<path d="M60.5743 32.3099H57.9517V59.3689C57.9406 59.5518 57.9114 59.7308 57.8655 59.9082C57.8196 60.0847 57.7563 60.2557 57.6772 60.4196C57.5981 60.5842 57.5031 60.7393 57.394 60.8856C57.2848 61.0312 57.1622 61.1648 57.0269 61.2865C56.8908 61.409 56.7452 61.5163 56.5886 61.6094C56.4327 61.7024 56.2682 61.7788 56.0973 61.84C55.9256 61.9005 55.75 61.9442 55.5704 61.9705C55.3908 61.9967 55.2105 62.0055 55.0285 61.9967H39.5352V43.5464C39.5352 43.42 39.5233 43.2943 39.4988 43.1702C39.4743 43.0462 39.4379 42.9261 39.3896 42.8092C39.3414 42.6922 39.2828 42.5809 39.2124 42.4759C39.1428 42.3701 39.0637 42.2731 38.9743 42.1832C38.8857 42.0941 38.7892 42.0138 38.6847 41.9438C38.5795 41.8738 38.4695 41.8142 38.3532 41.7657C38.2369 41.7172 38.1175 41.6806 37.9941 41.6559C37.8707 41.6313 37.7465 41.6185 37.6207 41.6185H26.3796C26.2538 41.6185 26.1288 41.6313 26.0054 41.6559C25.8828 41.6806 25.7625 41.7172 25.6463 41.7657C25.53 41.8134 25.42 41.873 25.3156 41.9438C25.2103 42.0138 25.1138 42.0941 25.0252 42.1832C24.9358 42.2731 24.8567 42.3701 24.7871 42.4751C24.7167 42.5809 24.6581 42.6914 24.6099 42.8084C24.5616 42.9261 24.526 43.0462 24.5015 43.1702C24.477 43.2943 24.4643 43.42 24.4643 43.5464V61.9951H8.9702C8.78903 62.0047 8.60945 61.9967 8.42986 61.9713C8.25028 61.945 8.07544 61.9021 7.90456 61.8416C7.73368 61.7812 7.57071 61.7048 7.41486 61.6118C7.25901 61.5195 7.11344 61.4121 6.97816 61.2905C6.84288 61.1696 6.72104 61.0359 6.61187 60.8904C6.50269 60.7449 6.40934 60.5898 6.33023 60.4259C6.25112 60.2621 6.18941 60.0919 6.14352 59.9153C6.09764 59.7395 6.06916 59.5598 6.05887 59.3785V32.3099H3.42444C0.505201 32.3099 -1.07625 29.5445 0.83589 27.7701L29.6628 0.95602C29.8432 0.802519 30.0354 0.665721 30.2403 0.54642C30.4444 0.427119 30.6572 0.326907 30.8795 0.244987C31.101 0.163862 31.3289 0.101826 31.5615 0.0612632C31.7941 0.0199056 32.0282 -0.000773193 32.2648 2.20951e-05C32.5013 2.20951e-05 32.7355 0.0214963 32.9681 0.0636492C33.2007 0.105802 33.4277 0.167839 33.6492 0.250554C33.8708 0.333269 34.0836 0.434277 34.2877 0.554374C34.491 0.675265 34.6832 0.812063 34.8628 0.966359C44.3001 9.90438 53.7413 18.8416 63.1865 27.7788C65.0639 29.5707 63.4832 32.3099 60.5743 32.3099Z" fill="#ffffff"/>
</svg>
