<svg width="64" height="60" viewBox="0 0 64 60" fill="none" xmlns="http://www.w3.org/2000/svg">
<mask id="mask0_3851_11638" style="mask-type:luminance" maskUnits="userSpaceOnUse" x="0" y="0" width="46" height="60">
<path d="M0 0H45.7538V59.6295H0V0Z" fill="white"/>
</mask>
<g mask="url(#mask0_3851_11638)">
<path d="M18.2867 29.8168C18.2872 29.9665 18.2951 30.1158 18.3102 30.2647C18.3252 30.4132 18.3474 30.5612 18.3767 30.708C18.4063 30.8543 18.4431 30.9995 18.4866 31.1425C18.5301 31.2855 18.5807 31.426 18.6384 31.5644C18.6957 31.7024 18.7597 31.8375 18.8304 31.9692C18.9011 32.1009 18.978 32.2293 19.0612 32.3535C19.1444 32.4777 19.2335 32.5977 19.3284 32.7136C19.4234 32.829 19.5241 32.9398 19.6295 33.0456C19.7353 33.1514 19.8461 33.2518 19.962 33.3467C20.0774 33.4416 20.1974 33.5307 20.3216 33.6139C20.4462 33.6971 20.5742 33.7741 20.7059 33.8448C20.8381 33.9154 20.9727 33.9794 21.1112 34.0371C21.2492 34.0944 21.3897 34.145 21.5331 34.1885C21.6761 34.2324 21.8208 34.2688 21.9676 34.2985C22.1144 34.3282 22.262 34.3503 22.4109 34.3654C22.5597 34.3805 22.709 34.388 22.8583 34.3884H45.717V50.3898C45.717 50.5395 45.7137 50.6888 45.7062 50.8385C45.699 50.9878 45.6882 51.137 45.6735 51.2859C45.6589 51.4348 45.6405 51.5832 45.6188 51.7313C45.5966 51.8793 45.5711 52.0269 45.5418 52.1737C45.513 52.3205 45.4799 52.4664 45.4435 52.6116C45.4072 52.7567 45.3674 52.9009 45.3239 53.044C45.2804 53.1874 45.2336 53.3296 45.1834 53.4705C45.1328 53.611 45.0793 53.7507 45.022 53.8891C44.9647 54.0275 44.9041 54.1643 44.8401 54.2993C44.7761 54.4348 44.7088 54.5682 44.6381 54.7004C44.5679 54.8321 44.4938 54.9626 44.4169 55.091C44.3404 55.2193 44.2601 55.3456 44.1769 55.4703C44.0941 55.5945 44.0079 55.717 43.9184 55.837C43.8294 55.9574 43.7374 56.0754 43.6424 56.1908C43.5475 56.3066 43.4496 56.4199 43.3493 56.5308C43.2489 56.6416 43.1456 56.7499 43.0398 56.8557C42.934 56.9615 42.8257 57.0648 42.7149 57.1651C42.6041 57.2659 42.4907 57.3634 42.3749 57.4583C42.2591 57.5532 42.1411 57.6452 42.0211 57.7347C41.9011 57.8238 41.7786 57.9099 41.654 57.9927C41.5298 58.076 41.4035 58.1562 41.2751 58.2332C41.1467 58.3101 41.0162 58.3837 40.8845 58.454C40.7524 58.5247 40.619 58.592 40.4835 58.656C40.3484 58.72 40.2112 58.7806 40.0732 58.8379C39.9348 58.8952 39.7951 58.9487 39.6542 58.9993C39.5133 59.0495 39.3715 59.0967 39.2281 59.1398C39.0851 59.1833 38.9408 59.2234 38.7957 59.2594C38.6506 59.2958 38.5046 59.3288 38.3578 59.3577C38.2111 59.387 38.0634 59.4125 37.9154 59.4346C37.7674 59.4564 37.6189 59.4748 37.47 59.4894C37.3212 59.504 37.1719 59.5149 37.0226 59.522C36.8729 59.5296 36.7232 59.5333 36.5739 59.5329H9.14318C8.99347 59.5333 8.84418 59.5296 8.69447 59.522C8.54518 59.5149 8.39589 59.504 8.24701 59.4894C8.09814 59.4748 7.94969 59.4564 7.80165 59.4346C7.65361 59.4125 7.50599 59.387 7.35921 59.3577C7.21243 59.3288 7.06648 59.2958 6.92137 59.2594C6.77626 59.2234 6.63199 59.1833 6.48897 59.1398C6.34554 59.0963 6.20335 59.0495 6.06243 58.9993C5.92192 58.9487 5.78224 58.8952 5.64383 58.8379C5.50541 58.7806 5.36866 58.72 5.23359 58.656C5.0981 58.592 4.9647 58.5247 4.83255 58.454C4.70082 58.3837 4.57035 58.3097 4.44197 58.2332C4.31359 58.1562 4.1873 58.076 4.06268 57.9927C3.93848 57.9099 3.81595 57.8238 3.69593 57.7343C3.57549 57.6452 3.45757 57.5532 3.34215 57.4583C3.22631 57.3634 3.11298 57.2659 3.00217 57.1651C2.89135 57.0648 2.78304 56.9615 2.67724 56.8557C2.57144 56.7499 2.46815 56.6416 2.36778 56.5308C2.267 56.4199 2.16956 56.3066 2.07464 56.1908C1.97971 56.0754 1.88771 55.957 1.79822 55.837C1.70914 55.717 1.623 55.5945 1.5402 55.4703C1.45698 55.3456 1.37669 55.2193 1.29974 55.091C1.2228 54.9626 1.1492 54.8321 1.07894 54.7004C1.00827 54.5682 0.940943 54.4348 0.876961 54.2993C0.812979 54.1643 0.752342 54.0275 0.695051 53.8891C0.63776 53.7507 0.584233 53.611 0.533633 53.4701C0.483451 53.3296 0.436196 53.1874 0.393123 53.044C0.349632 52.9009 0.309487 52.7567 0.273523 52.6116C0.237141 52.4664 0.204105 52.3205 0.17525 52.1737C0.145977 52.0269 0.120468 51.8793 0.0983044 51.7313C0.0765589 51.5832 0.0581588 51.4348 0.0435224 51.2859C0.028886 51.137 0.0180132 50.9878 0.0109042 50.8385C0.00337682 50.6888 -0.000386743 50.5395 3.14129e-05 50.3898V9.24391C-0.000386743 9.0942 0.00337682 8.94491 0.0109042 8.7952C0.0180132 8.64591 0.028886 8.49662 0.0435224 8.34774C0.0581588 8.19887 0.0765589 8.05042 0.0983044 7.90238C0.120468 7.75434 0.145977 7.60672 0.17525 7.45994C0.204105 7.31316 0.237141 7.16721 0.273523 7.0221C0.309487 6.87699 0.349632 6.73272 0.393123 6.5897C0.436196 6.44627 0.483451 6.30408 0.533633 6.16316C0.584233 6.02223 0.63776 5.88297 0.695051 5.74455C0.752342 5.60614 0.812979 5.46939 0.876961 5.33432C0.940943 5.19883 1.00827 5.06543 1.07894 4.93328C1.1492 4.80113 1.2228 4.67108 1.29974 4.5427C1.37669 4.41432 1.45698 4.28802 1.5402 4.16341C1.623 4.03921 1.70914 3.91668 1.79822 3.79666C1.88771 3.67622 1.97971 3.5583 2.07464 3.44288C2.16956 3.32704 2.267 3.21371 2.36778 3.10289C2.46815 2.99208 2.57144 2.88377 2.67724 2.77797C2.78304 2.67217 2.89135 2.56887 3.00217 2.46851C3.11298 2.36773 3.22631 2.27029 3.34215 2.17536C3.45757 2.08044 3.57549 1.98844 3.69593 1.89895C3.81595 1.80987 3.93848 1.72373 4.06268 1.64093C4.1873 1.55771 4.31359 1.47742 4.44197 1.40047C4.57035 1.32353 4.70082 1.24993 4.83255 1.17925C4.9647 1.109 5.0981 1.04167 5.23359 0.977689C5.36866 0.913707 5.50541 0.853071 5.64383 0.79578C5.78224 0.738489 5.92192 0.684961 6.06243 0.634361C6.20335 0.584179 6.34554 0.536925 6.48897 0.493852C6.63199 0.450361 6.77626 0.410215 6.92137 0.374252C7.06648 0.33787 7.21243 0.304833 7.35921 0.275979C7.50599 0.246706 7.65361 0.221197 7.80165 0.199033C7.94969 0.177287 8.09814 0.158887 8.24701 0.144251C8.39589 0.129615 8.54518 0.118742 8.69447 0.111633C8.84418 0.104105 8.99347 0.100342 9.14318 0.100342H36.5739C36.7232 0.100342 36.8729 0.104105 37.0226 0.111633C37.1719 0.118742 37.3212 0.129615 37.47 0.144251C37.6189 0.158887 37.7674 0.177287 37.9154 0.199033C38.0634 0.221197 38.2111 0.246706 38.3578 0.275979C38.5046 0.304833 38.6506 0.33787 38.7957 0.374252C38.9408 0.410215 39.0851 0.450361 39.2281 0.493852C39.3715 0.536925 39.5133 0.584179 39.6542 0.634361C39.7951 0.684961 39.9348 0.738489 40.0732 0.79578C40.2112 0.853071 40.3484 0.913707 40.4835 0.977689C40.619 1.04167 40.7524 1.109 40.8845 1.17925C41.0162 1.24993 41.1467 1.32353 41.2751 1.40047C41.4035 1.47742 41.5298 1.55771 41.654 1.64051C41.7786 1.72373 41.9011 1.80987 42.0211 1.89895C42.1411 1.98844 42.2591 2.08044 42.3749 2.17536C42.4907 2.27029 42.6041 2.36773 42.7149 2.46851C42.8257 2.56887 42.934 2.67217 43.0398 2.77797C43.1456 2.88377 43.2489 2.99208 43.3493 3.10289C43.4496 3.21371 43.5475 3.32704 43.6424 3.44288C43.7374 3.5583 43.8294 3.67622 43.9184 3.79666C44.0079 3.91668 44.0941 4.03921 44.1769 4.16341C44.2601 4.28802 44.3404 4.41432 44.4169 4.5427C44.4938 4.67108 44.5679 4.80113 44.6381 4.93328C44.7088 5.06543 44.7761 5.19883 44.8401 5.33432C44.9041 5.46939 44.9647 5.60614 45.022 5.74455C45.0793 5.88297 45.1328 6.02223 45.1834 6.16316C45.2336 6.30408 45.2804 6.44627 45.3239 6.5897C45.3674 6.73272 45.4072 6.87699 45.4435 7.0221C45.4799 7.16721 45.513 7.31316 45.5418 7.45994C45.5711 7.60672 45.5966 7.75434 45.6188 7.90238C45.6405 8.05042 45.6589 8.19887 45.6735 8.34774C45.6882 8.49662 45.699 8.64591 45.7062 8.7952C45.7137 8.94491 45.717 9.0942 45.717 9.24391V25.2453H22.8583C22.709 25.2457 22.5597 25.2532 22.4109 25.2683C22.262 25.2833 22.1144 25.3055 21.9676 25.3352C21.8208 25.3649 21.6761 25.4012 21.5331 25.4451C21.3897 25.4886 21.2492 25.5392 21.1112 25.5965C20.9727 25.6542 20.8381 25.7182 20.7059 25.7889C20.5742 25.8596 20.4462 25.9365 20.3216 26.0197C20.1974 26.1029 20.0774 26.192 19.962 26.2869C19.8461 26.3819 19.7353 26.4822 19.6295 26.588C19.5241 26.6938 19.4234 26.8047 19.3284 26.9201C19.2335 27.0359 19.1444 27.1559 19.0612 27.2801C18.978 27.4043 18.9011 27.5323 18.8304 27.6644C18.7597 27.7962 18.6957 27.9312 18.6384 28.0692C18.5807 28.2077 18.5301 28.3482 18.4866 28.4912C18.4431 28.6342 18.4063 28.7793 18.3767 28.9257C18.3474 29.0725 18.3252 29.2201 18.3102 29.369C18.2951 29.5178 18.2872 29.6671 18.2867 29.8168Z" fill="white"/>
</g>
<path d="M63.3338 28.2001L54.1902 19.0565C54.1371 19.0051 54.0815 18.9562 54.0234 18.9102C53.9652 18.8642 53.9054 18.8211 53.8431 18.781C53.7808 18.7408 53.7168 18.7036 53.6512 18.6697C53.5855 18.6359 53.5182 18.6049 53.4492 18.5777C53.3806 18.5501 53.3108 18.5263 53.2397 18.5054C53.1686 18.4849 53.0967 18.4677 53.0239 18.4539C52.9511 18.4406 52.8775 18.4305 52.8039 18.4238C52.7303 18.4171 52.6563 18.4142 52.5823 18.4151C52.5083 18.4155 52.4343 18.4197 52.3607 18.4276C52.2871 18.4355 52.2143 18.4468 52.1415 18.4619C52.0692 18.4765 51.9977 18.4949 51.9266 18.5171C51.8559 18.5388 51.7865 18.5639 51.7183 18.5928C51.6502 18.6212 51.5833 18.6534 51.518 18.6881C51.4528 18.7233 51.3897 18.7617 51.3282 18.8027C51.2667 18.8441 51.2073 18.8884 51.15 18.9353C51.0927 18.9825 51.0384 19.0319 50.9857 19.0846C50.9334 19.1368 50.8837 19.1916 50.8368 19.2485C50.7896 19.3058 50.7457 19.3652 50.7043 19.4266C50.6633 19.4881 50.6248 19.5513 50.5897 19.6165C50.5545 19.6817 50.5228 19.7486 50.4943 19.8168C50.4655 19.885 50.4404 19.9548 50.4182 20.0255C50.3965 20.0962 50.3781 20.1677 50.363 20.24C50.3484 20.3128 50.3371 20.386 50.3291 20.4596C50.3212 20.5332 50.317 20.6068 50.3166 20.6808C50.3158 20.7548 50.3187 20.8288 50.3254 20.9024C50.3317 20.9764 50.3417 21.0496 50.3555 21.1224C50.3693 21.1951 50.3864 21.2671 50.4069 21.3382C50.4274 21.4092 50.4517 21.4791 50.4793 21.5481C50.5065 21.6167 50.5374 21.684 50.5713 21.7496C50.6051 21.8153 50.6424 21.8793 50.6825 21.9416C50.7227 22.0039 50.7657 22.0637 50.8117 22.1218C50.8577 22.18 50.9067 22.2356 50.9581 22.2887L56.2 27.531H22.8583C22.7834 27.531 22.709 27.5348 22.6346 27.5419C22.5601 27.5494 22.4861 27.5603 22.4125 27.5749C22.3389 27.5896 22.2666 27.6076 22.1951 27.6293C22.1231 27.651 22.0529 27.6761 21.9839 27.705C21.9145 27.7334 21.8471 27.7656 21.7811 27.8008C21.715 27.8363 21.6506 27.8748 21.5887 27.9162C21.5264 27.9576 21.4662 28.0023 21.4085 28.05C21.3503 28.0972 21.2951 28.1474 21.242 28.2005C21.1893 28.2532 21.1391 28.3088 21.0915 28.3666C21.0438 28.4247 20.9995 28.4845 20.9577 28.5468C20.9163 28.6091 20.8778 28.6731 20.8427 28.7392C20.8071 28.8052 20.7753 28.873 20.7465 28.942C20.718 29.0114 20.6929 29.0816 20.6712 29.1532C20.6495 29.2251 20.6311 29.2974 20.6164 29.371C20.6018 29.4442 20.5909 29.5182 20.5838 29.5927C20.5763 29.6671 20.5725 29.742 20.5725 29.8168C20.5725 29.8917 20.5763 29.9665 20.5838 30.041C20.5909 30.1154 20.6018 30.1894 20.6164 30.2626C20.6311 30.3362 20.6495 30.4085 20.6712 30.4805C20.6929 30.552 20.718 30.6222 20.7465 30.6916C20.7753 30.7606 20.8071 30.8284 20.8427 30.8945C20.8778 30.9605 20.9163 31.0245 20.9577 31.0868C20.9995 31.1491 21.0438 31.2089 21.0915 31.2671C21.1391 31.3248 21.1893 31.3804 21.242 31.4331C21.2951 31.4862 21.3503 31.5364 21.4085 31.5836C21.4662 31.6313 21.5264 31.6756 21.5887 31.7175C21.6506 31.7589 21.715 31.7973 21.7811 31.8329C21.8471 31.868 21.9145 31.9002 21.9839 31.9286C22.0529 31.9575 22.1231 31.9826 22.1951 32.0043C22.2666 32.0261 22.3389 32.0441 22.4125 32.0587C22.4861 32.0733 22.5601 32.0842 22.6346 32.0917C22.709 32.0988 22.7834 32.1026 22.8583 32.1026H56.2L50.9585 37.3441C50.9041 37.3968 50.8523 37.452 50.8034 37.5097C50.7544 37.5674 50.7084 37.6272 50.6654 37.6895C50.6227 37.7518 50.5826 37.8162 50.5462 37.8823C50.5094 37.9488 50.4763 38.0165 50.4462 38.086C50.4165 38.1558 50.3902 38.2265 50.3672 38.2988C50.3446 38.3707 50.3254 38.4439 50.3095 38.5179C50.294 38.592 50.2823 38.6668 50.2739 38.7421C50.266 38.8174 50.2614 38.8926 50.261 38.9683C50.2601 39.044 50.2635 39.1197 50.2702 39.195C50.2769 39.2707 50.2877 39.3455 50.302 39.4195C50.3162 39.494 50.3342 39.5676 50.3555 39.6399C50.3772 39.7127 50.4023 39.7838 50.4312 39.854C50.4596 39.9239 50.4918 39.9925 50.5274 40.0594C50.5625 40.1263 50.6014 40.1911 50.6432 40.2542C50.685 40.3174 50.7302 40.378 50.7783 40.4366C50.8259 40.4951 50.877 40.5511 50.9305 40.6047C50.984 40.6582 51.0401 40.7088 51.0986 40.7569C51.1571 40.805 51.2178 40.8497 51.2809 40.892C51.3437 40.9338 51.4089 40.9723 51.4758 41.0078C51.5427 41.0433 51.6109 41.0755 51.6811 41.104C51.751 41.1328 51.8225 41.1579 51.8948 41.1793C51.9676 41.201 52.0412 41.219 52.1152 41.2332C52.1896 41.2474 52.2645 41.2579 52.3398 41.265C52.4155 41.2717 52.4907 41.275 52.5664 41.2742C52.6421 41.2733 52.7178 41.2692 52.7931 41.2608C52.8683 41.2529 52.9428 41.2407 53.0168 41.2253C53.0908 41.2098 53.164 41.1905 53.2363 41.1675C53.3083 41.145 53.3794 41.1186 53.4488 41.0885C53.5186 41.0588 53.5864 41.0254 53.6524 40.989C53.7189 40.9522 53.7829 40.9125 53.8452 40.8694C53.9075 40.8263 53.9678 40.7803 54.0255 40.7314C54.0832 40.6825 54.1384 40.631 54.1911 40.5762L63.3342 31.4331C63.3869 31.38 63.4371 31.3244 63.4843 31.2662C63.5316 31.2081 63.5759 31.1483 63.6173 31.086C63.6583 31.0237 63.6968 30.9593 63.7319 30.8932C63.767 30.8271 63.7988 30.7598 63.8272 30.6904C63.8557 30.6214 63.8808 30.5511 63.9021 30.4792C63.9238 30.4077 63.9418 30.3354 63.9565 30.2618C63.9711 30.1886 63.982 30.1146 63.9891 30.0401C63.9966 29.9657 64 29.8912 64 29.8164C64 29.7415 63.9962 29.6671 63.9891 29.5927C63.9816 29.5182 63.9707 29.4442 63.956 29.3706C63.9418 29.2974 63.9234 29.2251 63.9021 29.1532C63.8804 29.0816 63.8553 29.0114 63.8268 28.9424C63.7984 28.873 63.7666 28.8056 63.7315 28.7396C63.6964 28.6735 63.6579 28.6091 63.6165 28.5468C63.5751 28.4845 63.5308 28.4247 63.4835 28.3666C63.4362 28.3084 63.3865 28.2532 63.3338 28.2001Z" fill="white"/>
</svg>
