<svg width="64" height="64" viewBox="0 0 64 64" fill="none" xmlns="http://www.w3.org/2000/svg">
<mask id="mask0_3851_11607" style="mask-type:luminance" maskUnits="userSpaceOnUse" x="0" y="0" width="64" height="64">
<path d="M0 0H64V64H0V0Z" fill="white"/>
</mask>
<g mask="url(#mask0_3851_11607)">
<path d="M32 20.3638C25.5711 20.3638 20.3638 25.5711 20.3638 32C20.3638 38.4289 25.5711 43.6362 32 43.6362C38.4289 43.6362 43.6362 38.4289 43.6362 32C43.6362 25.5711 38.4289 20.3638 32 20.3638ZM58.0071 29.0906C56.6688 16.9597 47.0396 7.33121 34.9087 5.99292V0H29.0906V5.99292C16.9597 7.33121 7.3305 16.9597 5.99292 29.0906H0V34.9094H5.99292C7.3305 47.0396 16.9597 56.6688 29.0906 58.0071V64H34.9087V58.0071C47.0396 56.6688 56.6688 47.0396 58.0071 34.9094H64V29.0906H58.0071ZM32 52.3638C20.7565 52.3638 11.6362 43.2435 11.6362 32C11.6362 20.7565 20.7565 11.6362 32 11.6362C43.2435 11.6362 52.3638 20.7565 52.3638 32C52.3638 43.2435 43.2435 52.3638 32 52.3638Z" fill="white"/>
</g>
</svg>
