<svg width="32" height="32" viewBox="0 0 32 32" fill="none" xmlns="http://www.w3.org/2000/svg">
<path d="M4 8H6.66667M6.66667 8H28M6.66667 8L6.66667 26.6667C6.66667 27.3739 6.94762 28.0522 7.44772 28.5523C7.94781 29.0524 8.62609 29.3333 9.33333 29.3333H22.6667C23.3739 29.3333 24.0522 29.0524 24.5523 28.5523C25.0524 28.0522 25.3333 27.3739 25.3333 26.6667V8M10.6667 8V5.33333C10.6667 4.62609 10.9476 3.94781 11.4477 3.44771C11.9478 2.94762 12.6261 2.66667 13.3333 2.66667H18.6667C19.3739 2.66667 20.0522 2.94762 20.5523 3.44771C21.0524 3.94781 21.3333 4.62609 21.3333 5.33333V8M13.3333 14.6667V22.6667M18.6667 14.6667V22.6667" stroke="#184262" stroke-width="3" stroke-linecap="round" stroke-linejoin="round"/>
</svg>
